<svg id="SvgjsSvg1001" width="288" height="288" xmlns="http://www.w3.org/2000/svg" version="1.1" xmlns:xlink="http://www.w3.org/1999/xlink" xmlns:svgjs="http://svgjs.com/svgjs"><defs id="SvgjsDefs1002"></defs><g id="SvgjsG1008" transform="matrix(1,0,0,1,0,0)"><svg xmlns="http://www.w3.org/2000/svg" viewBox="0 0 112.84 112.84" width="288" height="288"><defs><clipPath id="a"><rect width="112.84" height="112.82" fill="none"></rect></clipPath><clipPath id="b"><rect width="112.84" height="112.84" fill="none"></rect></clipPath></defs><g data-name="Layer 2" fill="#ffffff" class="color000 svgShape"><g data-name="Layer 1" fill="#ffffff" class="color000 svgShape"><g clip-path="url(#a)" fill="#ffffff" class="color000 svgShape"><g clip-path="url(#b)" fill="#ffffff" class="color000 svgShape"><path d="M56.42,7.52A48.9,48.9,0,0,1,91,91,48.9,48.9,0,0,1,21.84,21.84,48.62,48.62,0,0,1,56.42,7.52m0-7.52a56.42,56.42,0,1,0,56.42,56.42A56.42,56.42,0,0,0,56.42,0Z" fill="#ffffff" class="color000 svgShape"></path></g></g><g clip-path="url(#b)" fill="#ffffff" class="color000 svgShape"><rect width="7.52" height="37.61" x="22.57" y="37.56" fill="#ffffff" class="color000 svgShape"></rect><rect width="7.52" height="37.61" x="37.61" y="37.56" fill="#ffffff" class="color000 svgShape"></rect><rect width="7.52" height="37.61" x="52.66" y="37.56" fill="#ffffff" class="color000 svgShape"></rect><rect width="7.52" height="37.61" x="82.75" y="37.56" fill="#ffffff" class="color000 svgShape"></rect></g></g></g></svg></g></svg>